<?xml version="1.0" encoding="UTF-8"?>
<svg version="1.1" xmlns="http://www.w3.org/2000/svg" width="558" height="558">
<path d="M0 0 C1.94356384 -0.00422974 1.94356384 -0.00422974 3.9263916 -0.00854492 C5.37573256 -0.00660032 6.82507338 -0.00455213 8.27441406 -0.00241089 C9.79016156 -0.00376487 11.30590873 -0.00554478 12.82165527 -0.00772095 C16.94963888 -0.01229567 21.0775976 -0.01050556 25.20558167 -0.00734186 C29.5159614 -0.00481846 33.82633894 -0.00715574 38.13671875 -0.00872803 C45.37663151 -0.01054978 52.61653409 -0.00814326 59.85644531 -0.00338745 C68.23898001 0.00205518 76.62149039 0.00029253 85.00402451 -0.00521386 C92.18786706 -0.00974482 99.37170228 -0.01039562 106.55554581 -0.00777519 C110.85193531 -0.00621232 115.14831337 -0.00601891 119.44470215 -0.00931168 C123.48294723 -0.01219015 127.52116081 -0.01021514 131.55940247 -0.00441742 C133.04576057 -0.00308969 134.53212131 -0.00348415 136.01847839 -0.00568008 C138.03901071 -0.00839106 140.05954878 -0.00439723 142.08007812 0 C143.78022064 0.00056554 143.78022064 0.00056554 145.51470947 0.0011425 C148.04003906 0.12698364 148.04003906 0.12698364 149.04003906 1.12698364 C149.13714421 3.41788458 149.16190493 5.71184906 149.16029358 8.00480652 C149.16157522 9.09639664 149.16157522 9.09639664 149.16288275 10.21003908 C149.1645397 12.66683477 149.15901268 15.1235633 149.15356445 17.58035278 C149.1532826 19.33417255 149.15344027 21.08799244 149.15400696 22.84181213 C149.15429501 27.61847033 149.14839701 32.39510364 149.141433 37.17175603 C149.13520078 42.15792418 149.13459577 47.14409284 149.13340759 52.13026428 C149.13029389 61.57921658 149.12207997 71.02815738 149.1120581 80.4771046 C149.09881329 93.24057681 149.09339738 106.00405215 149.08755589 118.76752949 C149.07814011 138.88735617 149.05822145 159.00715856 149.04003906 179.12698364 C97.56003906 179.12698364 46.08003906 179.12698364 -6.95996094 179.12698364 C-7.00026397 134.52943722 -7.00026397 134.52943722 -7.00878906 115.90237427 C-7.01473262 103.01898808 -7.02173584 90.13560841 -7.03540039 77.25222778 C-7.04534558 67.87113119 -7.05181397 58.49003987 -7.05404943 49.10893816 C-7.05535682 44.13848147 -7.05844444 39.16803984 -7.06569099 34.19758797 C-7.07244861 29.52490242 -7.07457843 24.85223823 -7.07306862 20.17954826 C-7.07334506 18.45936848 -7.07535171 16.73918803 -7.07916641 15.01901245 C-7.08409964 12.68091703 -7.08296062 10.34290361 -7.08021545 8.00480652 C-7.08113725 6.6930951 -7.08205904 5.38138369 -7.08300877 4.02992344 C-6.86581029 -1.09421502 -4.58454163 0.00152501 0 0 Z " fill="#010101" transform="translate(140.9599609375,375.8730163574219)"/>
<path d="M0 0 C1.26895111 -0.00563965 2.53790222 -0.0112793 3.8453064 -0.01708984 C5.25950679 -0.01320085 6.67370663 -0.00910449 8.08790588 -0.00482178 C9.5710009 -0.00753059 11.05409456 -0.0110909 12.53718567 -0.01544189 C16.57229732 -0.02458207 20.60730703 -0.02101476 24.64242053 -0.01468372 C28.85977125 -0.00963119 33.07711306 -0.01431318 37.29446411 -0.01745605 C44.37878491 -0.02109828 51.46306406 -0.0162903 58.54737854 -0.0067749 C66.74303574 0.00410595 74.93859342 0.0005878 83.1342482 -0.01042771 C90.16358526 -0.01949829 97.19289233 -0.02078686 104.22223336 -0.01555037 C108.42366897 -0.01242887 112.62505778 -0.01202618 116.8264904 -0.01862335 C120.77696779 -0.02439272 124.72731667 -0.02040747 128.67778015 -0.00883484 C130.12943368 -0.00618587 131.581098 -0.00695737 133.03274727 -0.01136017 C135.01092269 -0.01680755 136.98912169 -0.00877214 138.96728516 0 C140.62952952 0.00113108 140.62952952 0.00113108 142.32535458 0.002285 C145.0471344 0.25396729 145.0471344 0.25396729 148.0471344 2.25396729 C148.41627789 4.90513802 148.41627789 4.90513802 148.40789795 8.34091187 C148.41408394 10.28870544 148.41408394 10.28870544 148.4203949 12.27584839 C148.4097767 13.72314659 148.39887226 15.17044271 148.38771057 16.61773682 C148.38686475 18.13525374 148.38733857 19.65277188 148.38903809 21.17028809 C148.38990121 25.29824399 148.37222439 29.42594004 148.35131621 33.55383539 C148.33260207 37.86466319 148.33080314 42.17549649 148.32723999 46.48635864 C148.31790401 54.65327175 148.29326929 62.82006483 148.26319152 70.98692501 C148.22969575 80.28302911 148.21317366 89.57913885 148.19810522 98.87528825 C148.16672103 118.00158272 148.11393045 137.12776536 148.0471344 156.25396729 C145.30375674 157.62565612 143.12148043 157.37991355 140.04957581 157.38095093 C138.13136017 157.38518066 138.13136017 157.38518066 136.1743927 157.38949585 C134.74916063 157.38755137 133.32392869 157.38550318 131.8986969 157.38336182 C130.40412859 157.3847162 128.90956062 157.38649635 127.41499329 157.38867188 C123.34898312 157.39324175 119.28299824 157.39145847 115.21698761 157.38829279 C110.96847463 157.3857669 106.71996387 157.38810737 102.47145081 157.38967896 C95.33586741 157.39149998 88.20029435 157.3890961 81.06471252 157.38433838 C72.80657688 157.37889589 64.54846593 157.38065859 56.29033089 157.38616478 C49.20921174 157.39069782 42.12810003 157.39134552 35.0469799 157.38872612 C30.81373057 157.3871644 26.58049286 157.38696672 22.34724426 157.3902626 C18.36807851 157.39314408 14.3889447 157.39116051 10.40978241 157.38536835 C8.9464193 157.38404224 7.48305352 157.38443235 6.01969147 157.38663101 C4.02802626 157.3893483 2.03635521 157.38534262 0.04469299 157.38095093 C-1.07176605 157.3805739 -2.1882251 157.38019688 -3.33851624 157.37980843 C-5.9528656 157.25396729 -5.9528656 157.25396729 -7.9528656 156.25396729 C-7.99953446 136.20941276 -8.0348293 116.16486922 -8.05648994 96.12027168 C-8.06681355 86.81374422 -8.08089452 77.50725046 -8.10374451 68.20074463 C-8.12364527 60.09156932 -8.13657414 51.98241842 -8.14104259 43.87321937 C-8.14365561 39.57731537 -8.14981968 35.28148119 -8.16432571 30.98559952 C-8.17785736 26.94570853 -8.18209725 22.90591644 -8.17908096 18.86600494 C-8.17963311 17.38006173 -8.18363681 15.89411536 -8.19127655 14.40819168 C-8.20116821 12.38578914 -8.19765664 10.36333406 -8.19337463 8.34091187 C-8.19521822 7.20710649 -8.19706181 6.07330112 -8.19896126 4.90513802 C-7.70197452 -0.44886419 -4.58277637 0.00311942 0 0 Z " fill="#010101" transform="translate(141.95286560058594,204.74603271484375)"/>
<path d="M0 0 C1.94356384 -0.00422974 1.94356384 -0.00422974 3.9263916 -0.00854492 C5.37573256 -0.00660032 6.82507338 -0.00455213 8.27441406 -0.00241089 C9.79016156 -0.00376487 11.30590873 -0.00554478 12.82165527 -0.00772095 C16.94963888 -0.01229567 21.0775976 -0.01050556 25.20558167 -0.00734186 C29.5159614 -0.00481846 33.82633894 -0.00715574 38.13671875 -0.00872803 C45.37663151 -0.01054978 52.61653409 -0.00814326 59.85644531 -0.00338745 C68.23898001 0.00205518 76.62149039 0.00029253 85.00402451 -0.00521386 C92.18786706 -0.00974482 99.37170228 -0.01039562 106.55554581 -0.00777519 C110.85193531 -0.00621232 115.14831337 -0.00601891 119.44470215 -0.00931168 C123.48294723 -0.01219015 127.52116081 -0.01021514 131.55940247 -0.00441742 C133.04576057 -0.00308969 134.53212131 -0.00348415 136.01847839 -0.00568008 C138.03901071 -0.00839106 140.05954878 -0.00439723 142.08007812 0 C143.78022064 0.00056554 143.78022064 0.00056554 145.51470947 0.0011425 C148.04003906 0.12698364 148.04003906 0.12698364 149.04003906 1.12698364 C149.13893689 3.11162557 149.16636171 5.09984017 149.16702271 7.08694458 C149.16984253 8.38265381 149.17266235 9.67836304 149.17556763 11.01333618 C149.17362303 12.46267714 149.17157484 13.91201796 149.16943359 15.36135864 C149.17078757 16.87710614 149.17256749 18.39285331 149.17474365 19.90859985 C149.17931838 24.03658346 149.17752827 28.16454218 149.17436457 32.29252625 C149.17184117 36.60290598 149.17417845 40.91328352 149.17575073 45.22366333 C149.17757249 52.46357609 149.17516597 59.70347867 149.17041016 66.94338989 C149.16496752 75.32592459 149.16673018 83.70843497 149.17223656 92.09096909 C149.17676753 99.27481164 149.17741832 106.45864686 149.17479789 113.64249039 C149.17323503 117.93887989 149.17304161 122.23525795 149.17633438 126.53164673 C149.17921285 130.56989181 149.17723785 134.60810539 149.17144012 138.64634705 C149.1701124 140.13270516 149.17050686 141.61906589 149.17270279 143.10542297 C149.17541376 145.12595529 149.17141994 147.14649336 149.16702271 149.16702271 C149.16645717 150.86716522 149.16645717 150.86716522 149.1658802 152.60165405 C149.04003906 155.12698364 149.04003906 155.12698364 148.04003906 156.12698364 C146.05539714 156.22588147 144.06718253 156.25330629 142.08007812 156.25396729 C140.13651428 156.25819702 140.13651428 156.25819702 138.15368652 156.26251221 C136.70434557 156.26056761 135.25500474 156.25851942 133.80566406 156.25637817 C132.28991656 156.25773215 130.77416939 156.25951207 129.25842285 156.26168823 C125.13043925 156.26626296 121.00248052 156.26447285 116.87449646 156.26130915 C112.56411673 156.25878575 108.25373919 156.26112303 103.94335938 156.26269531 C96.70344661 156.26451707 89.46354403 156.26211055 82.22363281 156.25735474 C73.84109811 156.2519121 65.45858773 156.25367476 57.07605362 156.25918114 C49.89221106 156.26371211 42.70837584 156.2643629 35.52453232 156.26174247 C31.22814281 156.26017961 26.93176476 156.25998619 22.63537598 156.26327896 C18.5971309 156.26615743 14.55891732 156.26418243 10.52067566 156.2583847 C9.03431755 156.25705698 7.54795681 156.25745144 6.06159973 156.25964737 C4.04106742 156.26235834 2.02052935 156.25836452 0 156.25396729 C-1.70014252 156.25340175 -1.70014252 156.25340175 -3.43463135 156.25282478 C-5.95996094 156.12698364 -5.95996094 156.12698364 -6.95996094 155.12698364 C-7.05885876 153.14234172 -7.08628359 151.15412711 -7.08694458 149.16702271 C-7.0897644 147.87131348 -7.09258423 146.57560425 -7.0954895 145.2406311 C-7.0935449 143.79129015 -7.09149671 142.34194932 -7.08935547 140.89260864 C-7.09070945 139.37686114 -7.09248936 137.86111397 -7.09466553 136.34536743 C-7.09924025 132.21738383 -7.09745014 128.0894251 -7.09428644 123.96144104 C-7.09176304 119.65106131 -7.09410032 115.34068377 -7.09567261 111.03030396 C-7.09749436 103.79039119 -7.09508784 96.55048861 -7.09033203 89.31057739 C-7.0848894 80.92804269 -7.08665205 72.54553231 -7.09215844 64.1629982 C-7.0966894 56.97915564 -7.0973402 49.79532042 -7.09471977 42.6114769 C-7.0931569 38.31508739 -7.09296349 34.01870934 -7.09625626 29.72232056 C-7.09913473 25.68407548 -7.09715972 21.6458619 -7.091362 17.60762024 C-7.09003427 16.12126213 -7.09042873 14.63490139 -7.09262466 13.14854431 C-7.09533564 11.128012 -7.09134181 9.10747393 -7.08694458 7.08694458 C-7.08656755 5.95351624 -7.08619053 4.82008789 -7.08580208 3.65231323 C-6.84780819 -1.12365278 -4.18596192 0.00139243 0 0 Z " fill="#010101" transform="translate(140.9599609375,35.873016357421875)"/>
<path d="M0 0 C0.93502853 -0.00175232 1.87005707 -0.00350464 2.8334198 -0.00531006 C5.93445676 -0.00972346 9.03543703 -0.0067926 12.13647461 -0.00341797 C14.28356436 -0.0040911 16.43065404 -0.0050612 18.57774353 -0.00631714 C23.08113326 -0.00779337 27.58450319 -0.00564172 32.08789062 -0.00097656 C37.87436783 0.0047241 43.6607987 0.00143911 49.44727421 -0.00454903 C53.88146823 -0.00815372 58.31565116 -0.00701654 62.7498455 -0.00442123 C64.88420047 -0.00375189 67.01855642 -0.00458065 69.15291023 -0.00690079 C72.12931123 -0.00942618 75.10563597 -0.00558848 78.08203125 0 C78.97296478 -0.00202423 79.86389832 -0.00404846 80.78182983 -0.00613403 C86.8620553 0.01513147 86.8620553 0.01513147 87.97631836 1.12939453 C88.07411131 3.73440989 88.10626471 6.31289476 88.09657288 8.91835022 C88.0974273 9.74408222 88.09828173 10.56981422 88.09916204 11.42056841 C88.10081938 14.20903003 88.09529135 16.99743252 88.08984375 19.78588867 C88.08956191 21.77615864 88.08971956 23.7664287 88.09028625 25.75669861 C88.09057434 31.17796313 88.08467582 36.59920573 88.0777123 42.02046514 C88.0714806 47.67928664 88.07087511 53.33810858 88.06968689 58.99693298 C88.06657303 69.72085945 88.0583589 80.44477578 88.0483374 91.16869777 C88.03717796 103.37404966 88.03166624 115.57940202 88.02664196 127.78475773 C88.01617633 152.8996423 87.99857584 178.01451785 87.97631836 203.12939453 C75.21597966 203.15251574 62.45564591 203.17030848 49.69529057 203.1812067 C43.77081121 203.18643602 37.84634613 203.19353454 31.921875 203.20483398 C26.20959265 203.21566114 20.49732408 203.221671 14.78503227 203.22427177 C12.60043559 203.22612633 10.41583971 203.22974753 8.23124886 203.23512459 C5.18279487 203.24233274 2.13439857 203.24338557 -0.9140625 203.24291992 C-1.8268396 203.2465152 -2.7396167 203.25011047 -3.68005371 203.2538147 C-9.90962948 203.24344669 -9.90962948 203.24344669 -11.02368164 202.12939453 C-11.12146706 199.53699073 -11.15362925 196.97124757 -11.14393616 194.37840271 C-11.14479058 193.55675426 -11.14564501 192.73510581 -11.14652532 191.88855892 C-11.14818264 189.11391673 -11.14265466 186.33933396 -11.13720703 183.56469727 C-11.13692519 181.58427939 -11.13708284 179.60386142 -11.13764954 177.6234436 C-11.13793762 172.22903769 -11.13203912 166.8346538 -11.12507558 161.44025302 C-11.11884386 155.80945874 -11.11823839 150.17866402 -11.11705017 144.54786682 C-11.11393631 133.87706428 -11.1057222 123.20627193 -11.09570068 112.53547388 C-11.08454122 100.39058035 -11.07902952 88.24568633 -11.07400525 76.10078895 C-11.06353963 51.11031849 -11.04593914 26.11985708 -11.02368164 1.12939453 C-7.62242657 -0.571233 -3.74161822 -0.00852044 0 0 Z " fill="#010101" transform="translate(30.023681640625,242.87060546875)"/>
<path d="M0 0 C51.81 0 103.62 0 157 0 C157.33 1.65 157.66 3.3 158 5 C156.15625 7.61328125 156.15625 7.61328125 153.5 10.3125 C152.5657905 11.28326198 151.63219954 12.25461957 150.69921875 13.2265625 C149.80847656 14.14179688 148.91773438 15.05703125 148 16 C146.7590462 17.38536459 145.52816292 18.7798903 144.3125 20.1875 C143.7659375 20.81527344 143.219375 21.44304687 142.65625 22.08984375 C141.48916984 23.4358395 140.32254538 24.78223044 139.15625 26.12890625 C132.53302205 33.74842484 132.53302205 33.74842484 130 36 C129.34 36 128.68 36 128 36 C128 36.99 128 37.98 128 39 C127.34 39 126.68 39 126 39 C125.66935547 39.80824219 125.66935547 39.80824219 125.33203125 40.6328125 C123.5544585 43.79178343 121.16509972 46.26249777 118.6875 48.875 C117.73168934 49.89193052 116.77725695 50.91015826 115.82421875 51.9296875 C115.3554834 52.42952148 114.88674805 52.92935547 114.40380859 53.44433594 C112.96016385 55.04414538 111.61551915 56.70045111 110.26953125 58.3828125 C109.52058594 59.24648438 108.77164063 60.11015625 108 61 C107.34 61 106.68 61 106 61 C105.773125 61.721875 105.54625 62.44375 105.3125 63.1875 C103.73664872 66.56432417 101.79123384 68.55767039 99 71 C98.34 71 97.68 71 97 71 C96.01 72.98 96.01 72.98 95 75 C94.34 75 93.68 75 93 75 C92.896875 75.639375 92.79375 76.27875 92.6875 76.9375 C92.460625 77.618125 92.23375 78.29875 92 79 C90.515 79.495 90.515 79.495 89 80 C88.58814453 80.82757813 88.58814453 80.82757813 88.16796875 81.671875 C86.47579785 85.04489792 83.88991647 87.54054939 81.3125 90.25 C80.21537208 91.41984774 79.11901323 92.59041724 78.0234375 93.76171875 C77.49717773 94.32294434 76.97091797 94.88416992 76.42871094 95.46240234 C74.72516979 97.29577592 73.07271737 99.16804085 71.4375 101.0625 C68.04221427 104.99168816 64.52554412 108.80718711 60.99389648 112.61352539 C58.66608634 115.13394693 56.43213407 117.69031055 54.2890625 120.3671875 C53.53367187 121.23601562 52.77828125 122.10484375 52 123 C51.34 123 50.68 123 50 123 C49.62875 123.8353125 49.62875 123.8353125 49.25 124.6875 C47.25576971 128.37682604 44.6750205 131.32613338 41.71484375 134.28125 C38.8569961 137.14320966 36.10583837 140.08033447 33.375 143.0625 C32.89804687 143.57876953 32.42109375 144.09503906 31.9296875 144.62695312 C29.92933236 146.80789588 28.02198034 148.96953866 26.2890625 151.37109375 C25.86367188 151.90863281 25.43828125 152.44617188 25 153 C24.34 153 23.68 153 23 153 C22.67 153.99 22.34 154.98 22 156 C21.34 156 20.68 156 20 156 C19.6596875 156.804375 19.6596875 156.804375 19.3125 157.625 C17.54429911 160.82460161 15.46329797 163.29037223 13 166 C12.34 166 11.68 166 11 166 C10.7525 166.556875 10.505 167.11375 10.25 167.6875 C8.74313162 170.47520651 7.1818574 172.69346503 5 175 C2.36328125 175.64453125 2.36328125 175.64453125 0 176 C-1.03619665 157.87592252 -1.23993493 139.75940988 -1.36918616 121.61169577 C-1.38689787 119.15484098 -1.40573839 116.69799731 -1.42493629 114.24115372 C-1.49193152 105.65184518 -1.55431079 97.06251675 -1.61254883 88.47314453 C-1.66683135 80.48721142 -1.73198813 72.50141417 -1.80188721 64.5156039 C-1.8617119 57.62263136 -1.91377344 50.72962819 -1.95981437 43.83654988 C-1.9873621 39.73426624 -2.01810457 35.63206757 -2.05682945 31.52987289 C-2.09283772 27.69000177 -2.11921254 23.85018518 -2.1381073 20.01019287 C-2.14668666 18.60245319 -2.15873374 17.19472976 -2.17449379 15.78705215 C-2.19545237 13.86729996 -2.20271905 11.94741278 -2.20927429 10.02755737 C-2.2171934 8.95366697 -2.22511251 7.87977657 -2.2332716 6.77334404 C-2 4 -2 4 0 0 Z " fill="#010101" transform="translate(306,376)"/>
<path d="M0 0 C1.36916565 0.00539291 1.36916565 0.00539291 2.76599121 0.01089478 C3.72198715 0.01074875 4.67798309 0.01060272 5.66294861 0.01045227 C8.83916452 0.01115181 12.01532259 0.01894614 15.19152832 0.02676392 C17.387283 0.02862795 19.58303809 0.03005192 21.77879333 0.03105164 C27.5705784 0.03487798 33.36233857 0.04470926 39.15411377 0.05575562 C46.0965651 0.06776122 53.03902473 0.07237142 59.98148346 0.07820892 C70.539797 0.08792095 81.09805587 0.1070767 91.65637207 0.12442017 C91.65637207 31.47442017 91.65637207 62.82442017 91.65637207 95.12442017 C67.23902025 95.16452898 67.23902025 95.16452898 56.8692627 95.17324829 C49.7801438 95.17923724 42.69103776 95.18633892 35.60192871 95.19985962 C29.88964636 95.21068678 24.17737779 95.21669663 18.46508598 95.21929741 C16.2804893 95.22115197 14.09589342 95.22477316 11.91130257 95.23015022 C8.86284858 95.23735838 5.81445228 95.2384112 2.76599121 95.23794556 C1.39682556 95.24333847 1.39682556 95.24333847 0 95.24884033 C-6.22957577 95.23847233 -6.22957577 95.23847233 -7.34362793 94.12442017 C-7.44419484 91.23836001 -7.47978168 88.37619442 -7.47302246 85.48965454 C-7.47477478 84.58403275 -7.4765271 83.67841095 -7.47833252 82.74534607 C-7.48275247 79.73626824 -7.47981254 76.72724865 -7.47644043 73.71817017 C-7.47711343 71.63691191 -7.47808342 69.55565374 -7.4793396 67.47439575 C-7.48081677 63.10626479 -7.47866141 58.73815423 -7.47399902 54.37002563 C-7.46830173 48.75727464 -7.47158063 43.14457145 -7.47757149 37.5318222 C-7.48117659 33.23230628 -7.48003875 28.93280178 -7.4774437 24.63328552 C-7.47677429 22.56312555 -7.47760333 20.49296456 -7.47992325 18.42280579 C-7.48244895 15.5349043 -7.47861035 12.64708139 -7.47302246 9.75918579 C-7.47504669 8.89473343 -7.47707092 8.03028107 -7.47915649 7.13963318 C-7.45332508 -0.0280781 -7.13904685 0.01188166 0 0 Z " fill="#010101" transform="translate(26.3436279296875,459.8755798339844)"/>
<path d="M0 0 C0.02332875 16.80223821 0.04097906 33.60447139 0.05181217 50.40672207 C0.05697518 58.20775836 0.06401797 66.00878461 0.07543945 73.80981445 C0.08538615 80.60676313 0.09185339 87.40370454 0.09408849 94.20066029 C0.09539563 97.80178131 0.09848164 101.40288152 0.10573006 105.0039959 C0.11374364 109.01756602 0.11399115 113.03109964 0.11352539 117.04467773 C0.11712067 118.24732773 0.12071594 119.44997772 0.12442017 120.68907166 C0.1230455 121.77587219 0.12167084 122.86267273 0.12025452 123.98240662 C0.12117631 124.93277518 0.1220981 125.88314375 0.12304783 126.86231136 C0 129 0 129 -1 130 C-3.90065409 130.10591499 -6.7776255 130.14677657 -9.67895508 130.14526367 C-11.04478981 130.15030159 -11.04478981 130.15030159 -12.43821716 130.15544128 C-15.46533553 130.16498383 -18.49239876 130.16689619 -21.51953125 130.16796875 C-23.61602298 130.17117957 -25.71251449 130.1745435 -27.80900574 130.17805481 C-32.21162434 130.18405472 -36.61422329 130.18589388 -41.0168457 130.18530273 C-46.66296653 130.18520118 -52.3089614 130.19884226 -57.95505238 130.21607494 C-62.28814779 130.22718637 -66.6212127 130.22922219 -70.95432091 130.22869301 C-73.03596111 130.22987485 -75.11760206 130.234308 -77.19922829 130.24202538 C-80.11052921 130.25180581 -83.02155613 130.24895463 -85.93286133 130.24291992 C-87.22738724 130.25134918 -87.22738724 130.25134918 -88.54806519 130.25994873 C-89.34304916 130.25575424 -90.13803314 130.25155975 -90.95710754 130.24723816 C-91.64530988 130.24778293 -92.33351221 130.24832769 -93.04256916 130.24888897 C-95.35295639 129.9551213 -96.982946 129.13653286 -99 128 C-99.20488457 124.48003799 -99.32813842 120.96162121 -99.4375 117.4375 C-99.49615234 116.44685547 -99.55480469 115.45621094 -99.61523438 114.43554688 C-99.78547585 107.11516348 -99.78547585 107.11516348 -97.44580078 103.79345703 C-95.70334984 102.07594278 -93.8889119 100.550514 -92 99 C-91.505 98.01 -91.505 98.01 -91 97 C-90.34 97 -89.68 97 -89 97 C-88.773125 96.46375 -88.54625 95.9275 -88.3125 95.375 C-85.43544616 90.16890258 -81.16980044 86.16980044 -77 82 C-76.278125 81.071875 -75.55625 80.14375 -74.8125 79.1875 C-73.9153125 78.1046875 -73.9153125 78.1046875 -73 77 C-72.34 77 -71.68 77 -71 77 C-70.7525 76.443125 -70.505 75.88625 -70.25 75.3125 C-68.77075182 72.57589087 -67.06532561 70.32349131 -65 68 C-64.34 68 -63.68 68 -63 68 C-62.773125 67.46375 -62.54625 66.9275 -62.3125 66.375 C-60.54429911 63.17539839 -58.46329797 60.70962777 -56 58 C-55.34 58 -54.68 58 -54 58 C-54 57.34 -54 56.68 -54 56 C-53.34 56 -52.68 56 -52 56 C-51.75636719 55.43796875 -51.51273438 54.8759375 -51.26171875 54.296875 C-49.75819064 51.55980215 -47.93300252 49.54204059 -45.8125 47.25 C-44.60980469 45.93708984 -44.60980469 45.93708984 -43.3828125 44.59765625 C-42.59648438 43.74042969 -41.81015625 42.88320312 -41 42 C-37.79571601 38.40297303 -34.62917917 34.81623244 -31.6875 31 C-31.130625 30.34 -30.57375 29.68 -30 29 C-29.34 29 -28.68 29 -28 29 C-27.34 27.68 -26.68 26.36 -26 25 C-25.34 25 -24.68 25 -24 25 C-23.731875 24.195625 -23.46375 23.39125 -23.1875 22.5625 C-22.5996875 21.2940625 -22.5996875 21.2940625 -22 20 C-21.01 19.67 -20.02 19.34 -19 19 C-18.29605388 17.68596724 -17.63654342 16.3479743 -17 15 C-14.28163734 11.3442709 -11.25743196 8.1779824 -8 5 C-7.13375 4.071875 -6.2675 3.14375 -5.375 2.1875 C-3 0 -3 0 0 0 Z " fill="#010101" transform="translate(118,100)"/>
<path d="M0 0 C26.4 0 52.8 0 80 0 C80 0.66 80 1.32 80 2 C80.66 2 81.32 2 82 2 C82.04627451 12.13537602 82.08184427 22.27072704 82.10362434 32.40618706 C82.11407597 37.11213783 82.12826022 41.81801651 82.15087891 46.52392578 C82.17255826 51.06264076 82.18455823 55.60128624 82.18975449 60.14004898 C82.19345909 61.87446309 82.20069294 63.60887326 82.21146011 65.3432579 C82.22590995 67.76652086 82.2279807 70.18949409 82.22705078 72.61279297 C82.23424133 73.33496002 82.24143188 74.05712708 82.24884033 74.80117798 C82.22810432 79.77189568 82.22810432 79.77189568 80 82 C76.94584656 82.24723816 76.94584656 82.24723816 72.9675293 82.24291992 C72.24375092 82.24481827 71.51997253 82.24671661 70.77426147 82.24867249 C68.37413809 82.2523863 65.9743154 82.24166453 63.57421875 82.23046875 C61.90753719 82.22927677 60.24085494 82.22882383 58.57417297 82.2290802 C55.07618012 82.22751409 51.57828942 82.21921717 48.08032227 82.20581055 C43.60131659 82.18886 39.12242369 82.18499507 34.6433897 82.18575573 C31.19896879 82.18548338 27.75457242 82.17999115 24.31015968 82.17275429 C22.65917967 82.16957608 21.00819688 82.1676022 19.35721397 82.16686058 C17.04497961 82.16468578 14.7328632 82.15591585 12.4206543 82.14526367 C11.10542282 82.14145187 9.79019135 82.13764008 8.43510437 82.13371277 C5.46491788 82.01809711 2.84922883 81.83618064 0 81 C-1.48681463 78.02637075 -1.13869315 74.99632817 -1.12939453 71.73632812 C-1.13114685 70.98822372 -1.13289917 70.24011932 -1.13470459 69.46934509 C-1.13911532 66.98995665 -1.13618785 64.51063921 -1.1328125 62.03125 C-1.13348576 60.31254055 -1.13445598 58.59383119 -1.13571167 56.87512207 C-1.13718759 53.27041722 -1.13503748 49.66573713 -1.13037109 46.06103516 C-1.12467387 41.43376953 -1.12795344 36.8065619 -1.13394356 32.1792984 C-1.13755202 28.62949179 -1.13640927 25.07969899 -1.13381577 21.52989197 C-1.13314729 19.82339979 -1.13397217 18.11690637 -1.13629532 16.41041565 C-1.1388265 14.02813378 -1.13497464 11.64594666 -1.12939453 9.26367188 C-1.13141876 8.55399765 -1.13344299 7.84432343 -1.13552856 7.11314392 C-1.11426453 2.22852906 -1.11426453 2.22852906 0 0 Z " fill="#010101" transform="translate(306,171)"/>
<path d="M0 0 C1.07853745 0.00607269 1.07853745 0.00607269 2.17886353 0.01226807 C2.9367215 0.00876343 3.69457947 0.00525879 4.47540283 0.00164795 C6.98732591 -0.00717417 9.49896869 -0.00131861 12.01089478 0.00543213 C13.75202488 0.00408561 15.49315463 0.0021452 17.23428345 -0.00036621 C20.88609389 -0.00331812 24.53780661 0.0009823 28.18960571 0.01031494 C32.87746459 0.02170954 37.56509448 0.01515042 42.25294495 0.00317001 C45.84908788 -0.00404679 49.44517625 -0.00176149 53.0413208 0.0034256 C54.77014187 0.00476259 56.49896786 0.00311264 58.2277832 -0.00153351 C60.64129818 -0.00659584 63.05443901 0.00110714 65.46792603 0.01226807 C66.18695099 0.0082196 66.90597595 0.00417114 67.64678955 0 C72.59486581 0.04252817 72.59486581 0.04252817 74.82339478 2.27105713 C75.02162849 4.75962625 75.09620166 7.1368985 75.08218384 9.62652588 C75.08568848 10.38438385 75.08919312 11.14224182 75.09280396 11.92306519 C75.10162607 14.43498827 75.09577052 16.94663105 75.08901978 19.45855713 C75.09036629 21.19968724 75.09230671 22.94081698 75.09481812 24.6819458 C75.09777003 28.33375625 75.09346961 31.98546896 75.08413696 35.63726807 C75.07274237 40.32512694 75.07930148 45.01275683 75.09128189 49.7006073 C75.0984987 53.29675023 75.09621339 56.89283861 75.09102631 60.48898315 C75.08968931 62.21780423 75.09133926 63.94663021 75.09598541 65.67544556 C75.10104774 68.08896054 75.09334477 70.50210136 75.08218384 72.91558838 C75.0862323 73.63461334 75.09028076 74.35363831 75.0944519 75.0944519 C75.05192374 80.04252817 75.05192374 80.04252817 72.82339478 82.27105713 C70.37017527 82.46925331 68.02985871 82.54387805 65.57559204 82.52984619 C64.45584488 82.53510315 64.45584488 82.53510315 63.31347656 82.54046631 C60.83882423 82.54928911 58.36445641 82.54343204 55.88980103 82.53668213 C54.17348679 82.53802877 52.45717292 82.53996929 50.74085999 82.54248047 C47.14032364 82.54543259 43.53988641 82.54113182 39.93936157 82.53179932 C35.32110216 82.52041328 30.70307541 82.52695827 26.08482456 82.53894424 C22.53925318 82.5461678 18.99373703 82.54387249 15.44816399 82.53868866 C13.74528921 82.53735309 12.04240943 82.53899665 10.33954048 82.54364777 C7.95975572 82.5487202 5.58034864 82.54099244 3.20059204 82.52984619 C2.49451309 82.53389465 1.78843414 82.53794312 1.06095886 82.54211426 C-2.58188306 82.51046489 -4.05509496 82.35206397 -7.17660522 80.27105713 C-7.47383833 77.73874011 -7.57586331 75.45010037 -7.54891968 72.91558838 C-7.55257034 72.15773041 -7.55622101 71.39987244 -7.5599823 70.61904907 C-7.5681067 68.10699242 -7.55446248 65.59557703 -7.53988647 63.08355713 C-7.53936809 61.34242758 -7.53988494 59.60129743 -7.54139709 57.86016846 C-7.54130729 54.20830567 -7.53086054 50.55666327 -7.51278687 46.90484619 C-7.49009934 42.21697231 -7.48955465 37.52942063 -7.49630451 32.84150696 C-7.49964137 29.24535239 -7.49301978 25.64927168 -7.48317528 22.0531311 C-7.47931808 20.32431423 -7.4781772 18.59548915 -7.47976112 16.8666687 C-7.48013079 14.45312771 -7.46753973 12.04000432 -7.45126343 9.62652588 C-7.45374084 8.90750092 -7.45621826 8.18847595 -7.45877075 7.44766235 C-7.39240672 1.30132447 -6.14759691 0.05283791 0 0 Z " fill="#010101" transform="translate(391.1766052246094,78.72894287109375)"/>
<path d="M0 0 C1.09795647 0.00303635 1.09795647 0.00303635 2.21809387 0.00613403 C3.36929214 0.00350555 3.36929214 0.00350555 4.54374695 0.00082397 C7.09350309 -0.00359537 9.64319047 -0.00065598 12.19294739 0.00271606 C13.95792657 0.00204298 15.72290566 0.00107292 17.48788452 -0.00018311 C21.19272237 -0.00166025 24.89753616 0.00049474 28.60237122 0.00515747 C33.3585804 0.01085061 38.11473311 0.00757849 42.87094021 0.00158501 C46.5176842 -0.00202372 50.16441474 -0.00088051 53.81115913 0.0017128 C55.56509978 0.00238142 57.31904164 0.0015559 59.07298088 -0.00076675 C61.52242656 -0.00329791 63.97178008 0.00055408 66.42121887 0.00613403 C67.15116562 0.0041098 67.88111237 0.00208557 68.63317871 0 C73.65582657 0.02126503 73.65582657 0.02126503 75.88435364 1.13552856 C75.93062814 11.27090459 75.96619791 21.40625561 75.98797798 31.54171562 C75.99842961 36.2476664 76.01261386 40.95354507 76.03523254 45.65945435 C76.0569119 50.19816932 76.06891187 54.7368148 76.07410812 59.27557755 C76.07781273 61.00999165 76.08504658 62.74440182 76.09581375 64.47878647 C76.11026358 66.90204942 76.11233434 69.32502266 76.11140442 71.74832153 C76.11859497 72.47048859 76.12578552 73.19265564 76.13319397 73.93670654 C76.11245796 78.90742424 76.11245796 78.90742424 73.88435364 81.13552856 C71.43081097 81.32849875 69.09067512 81.39792442 66.6365509 81.37844849 C65.8900528 81.38034683 65.14355469 81.38224518 64.37443542 81.38420105 C61.89977103 81.38791426 59.42539834 81.37719596 56.95075989 81.36599731 C55.23444656 81.36480557 53.51813257 81.36435234 51.80181885 81.36460876 C48.20127796 81.36304289 44.60083635 81.35474615 41.00032043 81.34133911 C36.38211417 81.32436191 31.76401724 81.32052437 27.14578342 81.32128429 C23.60021926 81.32101248 20.05467905 81.31552922 16.50912285 81.30828285 C14.80625019 81.30509755 13.10337482 81.3031291 11.40049934 81.30238914 C9.02080275 81.3002234 6.64122253 81.29147368 4.2615509 81.28079224 C3.55547195 81.28124542 2.84939301 81.28169861 2.12191772 81.28216553 C-0.90428158 81.26228227 -3.21947796 81.10091803 -6.11564636 80.13552856 C-6.13877012 69.85248319 -6.15656162 59.56944395 -6.16745853 49.28637791 C-6.17268729 44.51204577 -6.1797848 39.73773136 -6.19108582 34.96340942 C-6.20191496 30.35986595 -6.20792325 25.75633957 -6.21052361 21.15278435 C-6.21237781 19.39243233 -6.21599832 17.6320813 -6.22137642 15.87173653 C-6.22858722 13.41480579 -6.22963729 10.95794661 -6.22917175 8.50100708 C-6.23276703 7.76589401 -6.2363623 7.03078094 -6.24006653 6.27339172 C-6.22777033 0.31527347 -5.96020131 0.02534176 0 0 Z " fill="#010101" transform="translate(390.1156463623047,280.8644714355469)"/>
<path d="M0 0 C1.61882584 0.00666183 1.61882584 0.00666183 3.27035522 0.01345825 C5.10202744 0.01368484 5.10202744 0.01368484 6.97070312 0.01391602 C8.30805625 0.02413001 9.64540772 0.03456201 10.98275757 0.04519653 C12.34753208 0.04892623 13.71230926 0.05177341 15.0770874 0.05377197 C18.6709023 0.0614119 22.2645558 0.08106331 25.85830688 0.10317993 C29.52476823 0.12363072 33.19125564 0.13277204 36.85775757 0.14285278 C44.05314369 0.164309 51.24839677 0.19844911 58.44369507 0.24050903 C60.18338479 4.00179805 60.67780694 6.87772009 60.61068726 11.00881958 C60.59697083 12.1431694 60.58325439 13.27751923 60.56912231 14.44624329 C60.54320007 15.66096817 60.51727783 16.87569305 60.49057007 18.12722778 C60.46014618 20.0072625 60.46014618 20.0072625 60.42910767 21.92527771 C60.38357813 24.57071859 60.33387793 27.21568486 60.27719116 29.86087036 C60.20504958 33.25366776 60.15116183 36.64646675 60.10273361 40.03967571 C60.05413556 43.27737546 59.99048858 46.51476941 59.92807007 49.75222778 C59.90133209 51.58342415 59.90133209 51.58342415 59.87405396 53.45161438 C59.83456635 55.13895439 59.83456635 55.13895439 59.79428101 56.86038208 C59.77492493 57.85345871 59.75556885 58.84653534 59.73562622 59.8697052 C59.44369507 62.24050903 59.44369507 62.24050903 57.44369507 64.24050903 C54.98350525 64.50120544 54.98350525 64.50120544 51.84823608 64.51516724 C50.67684586 64.52469925 49.50545563 64.53423126 48.29856873 64.54405212 C47.02774948 64.54314072 45.75693024 64.54222931 44.44760132 64.54129028 C43.14797958 64.54557541 41.84835785 64.54986053 40.50935364 64.55427551 C37.75622484 64.56174255 35.00322427 64.56144316 32.25009155 64.55618286 C28.72132345 64.55038933 25.19308042 64.56731327 21.66439915 64.59052753 C18.30044424 64.60880058 14.93660564 64.60507969 11.57260132 64.60379028 C10.3038063 64.61300003 9.03501129 64.62220978 7.72776794 64.63169861 C5.96595436 64.62235542 5.96595436 64.62235542 4.16854858 64.61282349 C3.13311417 64.61345291 2.09767975 64.61408234 1.03086853 64.61473083 C-1.55630493 64.24050903 -1.55630493 64.24050903 -3.39083862 63.07504272 C-5.03423568 60.48820924 -4.93047645 58.57061949 -4.92861938 55.51565552 C-4.93484818 54.34111313 -4.94107697 53.16657074 -4.94749451 51.95643616 C-4.93828476 50.68764114 -4.92907501 49.41884613 -4.91958618 48.11160278 C-4.92008469 46.81102432 -4.92058319 45.51044586 -4.9210968 44.17045593 C-4.92100713 41.4190307 -4.91058707 38.6678988 -4.89248657 35.91653442 C-4.86977688 32.38665455 -4.86925972 28.85720241 -4.87600422 25.32726955 C-4.88014472 21.96366492 -4.86817664 18.60019266 -4.85708618 15.23660278 C-4.85799759 13.96578354 -4.858909 12.69496429 -4.85984802 11.38563538 C-4.85031601 10.21424515 -4.840784 9.04285492 -4.83096313 7.83596802 C-4.82635574 6.80132919 -4.82174835 5.76669037 -4.81700134 4.70069885 C-4.44516197 1.19165384 -3.4995029 0.32924948 0 0 Z " fill="#010101" transform="translate(479.5563049316406,1.759490966796875)"/>
<path d="M0 0 C2.12524414 -0.3742218 2.12524414 -0.3742218 4.78515625 -0.37231445 C5.7795874 -0.37854324 6.77401855 -0.38477203 7.79858398 -0.39118958 C8.87567627 -0.38197983 9.95276855 -0.37277008 11.0625 -0.36328125 C12.164729 -0.36377975 13.26695801 -0.36427826 14.40258789 -0.36479187 C16.73618367 -0.36244828 19.06978184 -0.35270312 21.40332031 -0.33618164 C24.98525479 -0.31259709 28.56644519 -0.31561772 32.1484375 -0.32226562 C34.41146279 -0.31668896 36.67448494 -0.30957915 38.9375 -0.30078125 C40.01459229 -0.30169266 41.09168457 -0.30260406 42.20141602 -0.30354309 C43.19584717 -0.29401108 44.19027832 -0.28447906 45.21484375 -0.2746582 C46.09261475 -0.27005081 46.97038574 -0.26544342 47.87475586 -0.26069641 C50 0 50 0 52 2 C52.25396729 4.16320801 52.25396729 4.16320801 52.25878906 6.87695312 C52.26509338 7.89140503 52.27139771 8.90585693 52.27789307 9.9510498 C52.2738446 11.05001587 52.26979614 12.14898193 52.265625 13.28125 C52.26849518 14.96788757 52.26849518 14.96788757 52.27142334 16.68859863 C52.27278617 19.06925683 52.26908294 21.44992243 52.26074219 23.83056641 C52.25004429 27.48486953 52.26063444 31.13868101 52.2734375 34.79296875 C52.27211592 37.10156359 52.26955357 39.41015812 52.265625 41.71875 C52.26967346 42.81771606 52.27372192 43.91668213 52.27789307 45.0489502 C52.27158875 46.0634021 52.26528442 47.077854 52.25878906 48.12304688 C52.25719788 49.01858276 52.25560669 49.91411865 52.25396729 50.83679199 C52 53 52 53 50 55 C47.87475586 55.25396729 47.87475586 55.25396729 45.21484375 55.25878906 C44.2204126 55.26509338 43.22598145 55.27139771 42.20141602 55.27789307 C41.12432373 55.2738446 40.04723145 55.26979614 38.9375 55.265625 C37.835271 55.26753845 36.73304199 55.2694519 35.59741211 55.27142334 C33.26383232 55.27278612 30.93024497 55.26908322 28.59667969 55.26074219 C25.01480153 55.25004421 21.43342497 55.26063458 17.8515625 55.2734375 C15.58854055 55.27211592 13.32551892 55.26955357 11.0625 55.265625 C9.98540771 55.26967346 8.90831543 55.27372192 7.79858398 55.27789307 C6.30693726 55.26843658 6.30693726 55.26843658 4.78515625 55.25878906 C3.90738525 55.25719788 3.02961426 55.25560669 2.12524414 55.25396729 C0 55 0 55 -2 53 C-2.25396729 50.88148499 -2.25396729 50.88148499 -2.25878906 48.23071289 C-2.26509338 47.23950943 -2.27139771 46.24830597 -2.27789307 45.22706604 C-2.2738446 44.15311081 -2.26979614 43.07915558 -2.265625 41.97265625 C-2.26753845 40.87279892 -2.2694519 39.77294159 -2.27142334 38.63975525 C-2.27278623 36.31037162 -2.26908256 33.98098042 -2.26074219 31.65161133 C-2.25005453 28.08071855 -2.26062895 24.51033006 -2.2734375 20.93945312 C-2.27211572 18.67968639 -2.26955296 16.41991996 -2.265625 14.16015625 C-2.26967346 13.08822525 -2.27372192 12.01629425 -2.27789307 10.91188049 C-2.27158875 9.91752487 -2.26528442 8.92316925 -2.25878906 7.89868164 C-2.25719788 7.02313126 -2.25560669 6.14758087 -2.25396729 5.24549866 C-2 3 -2 3 0 0 Z " fill="#010101" transform="translate(307,79)"/>
<path d="M0 0 C1.21430225 2.4286045 1.12688439 3.97998824 1.12939453 6.69335938 C1.13254669 7.66776978 1.13569885 8.64218018 1.13894653 9.64611816 C1.1369223 10.70133667 1.13489807 11.75655518 1.1328125 12.84375 C1.13376923 13.92378296 1.13472595 15.00381592 1.13571167 16.11657715 C1.13639304 18.40307676 1.13454178 20.68957831 1.13037109 22.97607422 C1.12502226 26.48539556 1.13031758 29.99458891 1.13671875 33.50390625 C1.13605796 35.72135445 1.13477678 37.93880257 1.1328125 40.15625 C1.13483673 41.21146851 1.13686096 42.26668701 1.13894653 43.35388184 C1.13421829 44.81549744 1.13421829 44.81549744 1.12939453 46.30664062 C1.12859894 47.16664673 1.12780334 48.02665283 1.12698364 48.91271973 C1 51 1 51 0 53 C-17.16 53 -34.32 53 -52 53 C-53.22721424 50.54557152 -53.12691608 48.94282486 -53.12939453 46.19897461 C-53.13254669 45.20131577 -53.13569885 44.20365692 -53.13894653 43.17576599 C-53.1369223 42.09553665 -53.13489807 41.01530731 -53.1328125 39.90234375 C-53.13424759 38.24544273 -53.13424759 38.24544273 -53.13571167 36.55506897 C-53.13639301 34.21729475 -53.13454196 31.87951864 -53.13037109 29.54174805 C-53.12501716 25.94901312 -53.1303203 22.35640292 -53.13671875 18.76367188 C-53.13605806 16.49739556 -53.13477709 14.23111931 -53.1328125 11.96484375 C-53.13483673 10.88259018 -53.13686096 9.80033661 -53.13894653 8.68528748 C-53.13579437 7.69078079 -53.13264221 6.69627411 -53.12939453 5.67163086 C-53.12859894 4.79163925 -53.12780334 3.91164764 -53.12698364 3.00498962 C-53 1 -53 1 -52 0 C-48.76819588 -0.40509332 -45.50251939 -0.48115459 -42.25 -0.625 C-41.2489624 -0.67003662 -40.2479248 -0.71507324 -39.21655273 -0.76147461 C-26.13224692 -1.24091021 -13.0710074 -0.61263835 0 0 Z " fill="#010101" transform="translate(358,281)"/>
<path d="M0 0 C1.35568336 0.00333092 1.35568336 0.00333092 2.73875427 0.00672913 C3.75973709 0.00680466 4.78071991 0.00688019 5.8326416 0.00695801 C6.94304306 0.01211929 8.05344452 0.01728058 9.19749451 0.02259827 C10.89336952 0.02472069 10.89336952 0.02472069 12.62350464 0.02688599 C16.25105891 0.03250433 19.8785525 0.04505994 23.50608826 0.05775452 C25.95856133 0.06276715 28.41103536 0.06733047 30.86351013 0.07142639 C36.89022371 0.08247971 42.91690165 0.09923568 48.94358826 0.12025452 C48.94358826 0.78025452 48.94358826 1.44025452 48.94358826 2.12025452 C49.60358826 2.12025452 50.26358826 2.12025452 50.94358826 2.12025452 C50.96885613 9.22270451 50.98642026 16.325143 50.9985199 23.42762756 C51.00356175 25.84592624 51.01039504 28.26422185 51.01902771 30.68251038 C51.03109982 34.15004735 51.03681789 37.61754418 51.04124451 41.08509827 C51.04640579 42.17362595 51.05156708 43.26215363 51.05688477 44.38366699 C51.0569603 45.38462906 51.05703583 46.38559113 51.05711365 47.41688538 C51.05933426 48.30290939 51.06155487 49.18893341 51.06384277 50.10180664 C50.94358826 52.12025452 50.94358826 52.12025452 49.94358826 53.12025452 C48.32231402 53.2188705 46.69676458 53.24824218 45.07249451 53.24964905 C43.51583069 53.25437729 43.51583069 53.25437729 41.92771912 53.25920105 C40.23401184 53.2561647 40.23401184 53.2561647 38.50608826 53.25306702 C36.78047668 53.25450211 36.78047668 53.25450211 35.02000427 53.25596619 C32.58209682 53.25664821 30.14418756 53.25479242 27.70628357 53.25062561 C23.95982308 53.24527769 20.21348249 53.25056991 16.46702576 53.25697327 C14.10504632 53.25631249 11.74306697 53.25503133 9.38108826 53.25306702 C8.25195007 53.25509125 7.12281189 53.25711548 5.9594574 53.25920105 C4.40279358 53.25447281 4.40279358 53.25447281 2.81468201 53.24964905 C1.89614441 53.24885345 0.97760681 53.24805786 0.03123474 53.24723816 C-2.05641174 53.12025452 -2.05641174 53.12025452 -3.05641174 52.12025452 C-3.15495597 50.52962142 -3.18439868 48.93463974 -3.18580627 47.34095764 C-3.18895844 46.32320251 -3.1921106 45.30544739 -3.19535828 44.2568512 C-3.19333405 43.14958679 -3.19130981 42.04232239 -3.18922424 40.90150452 C-3.19018097 39.77329285 -3.1911377 38.64508118 -3.19212341 37.48268127 C-3.19280542 35.09185226 -3.19094971 32.7010214 -3.18678284 30.31019592 C-3.1814349 26.63616301 -3.18672717 22.96225235 -3.19313049 19.28822327 C-3.19246972 16.97181674 -3.19118856 14.6554103 -3.18922424 12.33900452 C-3.19226059 10.67810791 -3.19226059 10.67810791 -3.19535828 8.98365784 C-3.19220612 7.96590271 -3.18905396 6.94814758 -3.18580627 5.89955139 C-3.18501068 4.99877869 -3.18421509 4.09800598 -3.18339539 3.16993713 C-3.01109539 0.38878908 -2.78231043 0.1627035 0 0 Z " fill="#010101" transform="translate(415.05641174316406,186.87974548339844)"/>
<path d="M0 0 C0.7437085 0.00217529 1.48741699 0.00435059 2.25366211 0.0065918 C4.52116059 0.00974886 6.78735072 -0.01369197 9.0546875 -0.0390625 C10.49413898 -0.04133579 11.93359397 -0.04203885 13.37304688 -0.04101562 C14.68523193 -0.04399658 15.99741699 -0.04697754 17.34936523 -0.05004883 C20.59570312 0.32226562 20.59570312 0.32226562 22.52441406 1.39355469 C24.20422985 4.41783562 23.96678323 7.11195187 23.95898438 10.54492188 C23.95973213 11.59684975 23.95973213 11.59684975 23.960495 12.67002869 C23.95815733 14.15024657 23.94844675 15.63046863 23.93188477 17.1105957 C23.90825192 19.38007997 23.91133041 21.64839238 23.91796875 23.91796875 C23.87483746 35.04313129 23.87483746 35.04313129 21.59570312 37.32226562 C19.11003769 37.52175119 16.73819563 37.60216305 14.25195312 37.58789062 C13.52705688 37.58980408 12.80216064 37.59171753 12.05529785 37.59368896 C10.52205051 37.59505049 8.98879163 37.59135626 7.45556641 37.58300781 C5.10488054 37.5723074 2.7549589 37.58290371 0.40429688 37.59570312 C-1.08398607 37.59438152 -2.57226853 37.59181912 -4.06054688 37.58789062 C-4.76578491 37.59193909 -5.47102295 37.59598755 -6.19763184 37.60015869 C-11.17437202 37.55219048 -11.17437202 37.55219048 -13.40429688 35.32226562 C-13.60378244 32.83660019 -13.6841943 30.46475813 -13.66992188 27.97851562 C-13.67183533 27.25361938 -13.67374878 26.52872314 -13.67572021 25.78186035 C-13.67708174 24.24861301 -13.67338751 22.71535413 -13.66503906 21.18212891 C-13.65433865 18.83144304 -13.66493496 16.4815214 -13.67773438 14.13085938 C-13.67641277 12.64257643 -13.67385037 11.15429397 -13.66992188 9.66601562 C-13.67397034 8.96077759 -13.6780188 8.25553955 -13.68218994 7.52893066 C-13.59287098 -1.73798324 -7.54455936 0.0292496 0 0 Z " fill="#010101" transform="translate(429.404296875,18.677734375)"/>
<path d="M0 0 C0.71929687 -0.00386719 1.43859375 -0.00773438 2.1796875 -0.01171875 C9.76182933 0.00130899 17.13406132 0.61727075 24.75 1.125 C24.75 13.005 24.75 24.885 24.75 37.125 C18.995625 37.145625 13.24125 37.16625 7.3125 37.1875 C5.49435791 37.196604 3.67621582 37.20570801 1.80297852 37.21508789 C0.36995518 37.21800711 -1.06306898 37.22055566 -2.49609375 37.22265625 C-3.24669067 37.22777222 -3.9972876 37.23288818 -4.77062988 37.23815918 C-6.59747601 37.23846992 -8.42421683 37.18731113 -10.25 37.125 C-11.25 36.125 -11.25 36.125 -11.36352539 32.79858398 C-11.36336629 31.32274444 -11.35767314 29.84689931 -11.34765625 28.37109375 C-11.34553383 27.20792381 -11.34553383 27.20792381 -11.34336853 26.02125549 C-11.33775345 23.53496506 -11.32519846 21.0487634 -11.3125 18.5625 C-11.30748694 16.88086067 -11.3029237 15.19921994 -11.29882812 13.51757812 C-11.28777913 9.38668434 -11.27050445 5.25585724 -11.25 1.125 C-7.46953437 -0.13515521 -3.93684999 -0.01988308 0 0 Z " fill="#010101" transform="translate(503.25,146.875)"/>
<path d="M0 0 C1.25159912 0.00523682 2.50319824 0.01047363 3.79272461 0.01586914 C4.78942421 0.01799156 4.78942421 0.01799156 5.80625916 0.02015686 C7.93590735 0.02577021 10.06545175 0.03832485 12.19506836 0.05102539 C13.63582205 0.05603868 15.07657739 0.06060188 16.51733398 0.06469727 C20.05577938 0.07574394 23.59416375 0.09301747 27.13256836 0.11352539 C27.98334614 3.8026229 28.26114999 7.21754401 28.26538086 11.00024414 C28.26731445 12.65443359 28.26731445 12.65443359 28.26928711 14.34204102 C28.26541992 15.48350586 28.26155273 16.6249707 28.25756836 17.80102539 C28.26336914 19.530625 28.26336914 19.530625 28.26928711 21.29516602 C28.26799805 22.3940918 28.26670898 23.49301758 28.26538086 24.62524414 C28.26425293 25.63031006 28.263125 26.63537598 28.26196289 27.67089844 C28.13256836 30.11352539 28.13256836 30.11352539 27.13256836 32.11352539 C23.03915337 32.13822114 18.94576715 32.15638332 14.85229492 32.16845703 C13.45938359 32.17348969 12.06647756 32.18031637 10.67358398 32.18896484 C8.6729559 32.20107691 6.67228948 32.20622952 4.67163086 32.21118164 C3.46716309 32.21641846 2.26269531 32.22165527 1.02172852 32.22705078 C-1.86743164 32.11352539 -1.86743164 32.11352539 -3.86743164 31.11352539 C-3.89208786 26.85937916 -3.91027063 22.60527041 -3.92236328 18.35107422 C-3.92740265 16.90282467 -3.93423417 15.45458022 -3.94287109 14.00634766 C-3.95495411 11.92877951 -3.96066375 9.85127842 -3.96508789 7.77368164 C-3.97032471 6.52208252 -3.97556152 5.2704834 -3.98095703 3.98095703 C-3.8293481 0.15160893 -3.8293481 0.15160893 0 0 Z " fill="#010101" transform="translate(491.867431640625,86.886474609375)"/>
</svg>
